# xmcd
#
# Track frame offsets:
# 150
# 15044
# 31727
# 45284
#
# Disc length: 975 seconds
#
# Revision: 1
# Processed by: cddbd v1.5.2PL0 Copyright (c) Steve Scherf et al.
# Submitted via: CedeCatalogueitor 2.6.0.6 http://personales.ya.com/cdcatalogueitor
#
DISCID=1603cd04
DTITLE=The Cinematic Orchestra - To Build A Home (versions)
DYEAR=1900
DGENRE=
TTITLE0=To Build A Home (radio Version)
TTITLE1=To Build A Hombe (grey Reverend Version)
TTITLE2=To Build A Home (album Edit)
TTITLE3=To Build A Home (album Version)
EXTD=
EXTT0=
EXTT1=
EXTT2=
EXTT3=
PLAYORDER=
